<?xml version="1.0" encoding="UTF-8" standalone="no"?>
<!-- Creator: CorelDRAW -->
<svg
   xmlns:dc="http://purl.org/dc/elements/1.1/"
   xmlns:cc="http://creativecommons.org/ns#"
   xmlns:rdf="http://www.w3.org/1999/02/22-rdf-syntax-ns#"
   xmlns:svg="http://www.w3.org/2000/svg"
   xmlns="http://www.w3.org/2000/svg"
   xmlns:sodipodi="http://sodipodi.sourceforge.net/DTD/sodipodi-0.dtd"
   xmlns:inkscape="http://www.inkscape.org/namespaces/inkscape"
   xml:space="preserve"
   width="11.6929in"
   height="8.26772in"
   style="shape-rendering: geometricprecision; text-rendering: geometricprecision; fill-rule: evenodd; clip-rule: evenodd;"
   viewBox="0 0 11.6929 8.26772"
   id="svg2"
   sodipodi:version="0.32"
   inkscape:version="0.46"
   sodipodi:docname="wordpress_notifier.svg"
   inkscape:output_extension="org.inkscape.output.svg.inkscape"
   sodipodi:docbase="Y:\Documents\Hacking\Wordpress Notifier Icons"><metadata
   id="metadata13"><rdf:RDF><cc:Work
       rdf:about=""><dc:format>image/svg+xml</dc:format><dc:type
         rdf:resource="http://purl.org/dc/dcmitype/StillImage" /></cc:Work></rdf:RDF></metadata><sodipodi:namedview
   inkscape:window-height="968"
   inkscape:window-width="1280"
   inkscape:pageshadow="2"
   inkscape:pageopacity="0.0"
   guidetolerance="10.0"
   gridtolerance="10.0"
   objecttolerance="10.0"
   borderopacity="1.0"
   bordercolor="#666666"
   pagecolor="#ffffff"
   id="base"
   inkscape:zoom="2.1435469"
   inkscape:cx="70.931555"
   inkscape:cy="725.52737"
   inkscape:window-x="0"
   inkscape:window-y="22"
   inkscape:current-layer="svg2"
   showgrid="false" />
 <defs
   id="defs4"><inkscape:perspective
   sodipodi:type="inkscape:persp3d"
   inkscape:vp_x="0 : 372.04742 : 1"
   inkscape:vp_y="0 : 1000 : 0"
   inkscape:vp_z="1052.361 : 372.04742 : 1"
   inkscape:persp3d-origin="526.18048 : 248.03162 : 1"
   id="perspective2397" />
  <style
   type="text/css"
   id="style6">
   
    .fil0 {fill:#1F1A17}
   
  </style>
 
  <metadata
   id="CorelCorpID_0Corel-Layer" />
  
 </defs>
 <path
   transform="matrix(4.1988838e-2,0,0,4.6460154e-2,0.6756698,0.7159195)"
   d="M 6.3777781 4.9843869 A 2.3277779 2.0833335 0 1 1  1.7222223,4.9843869 A 2.3277779 2.0833335 0 1 1  6.3777781 4.9843869 z"
   sodipodi:ry="2.0833335"
   sodipodi:rx="2.3277779"
   sodipodi:cy="4.9843869"
   sodipodi:cx="4.0500002"
   id="path3136"
   style="fill:#ffffff;fill-opacity:1;stroke:#393939;stroke-width:0.3682912;stroke-linecap:square;stroke-linejoin:miter;stroke-miterlimit:7.9000001;stroke-dasharray:none;stroke-dashoffset:0;stroke-opacity:1"
   sodipodi:type="arc" /><path
   sodipodi:type="arc"
   style="fill:#f64c4c;fill-opacity:1;stroke:#f64c4c;stroke-width:0.54040182;stroke-linecap:square;stroke-linejoin:miter;stroke-miterlimit:7.9000001;stroke-dasharray:none;stroke-dashoffset:0;stroke-opacity:1"
   id="path17969"
   sodipodi:cx="4.0500002"
   sodipodi:cy="4.9843869"
   sodipodi:rx="2.3277779"
   sodipodi:ry="2.0833335"
   d="M 6.3777781 4.9843869 A 2.3277779 2.0833335 0 1 1  1.7222223,4.9843869 A 2.3277779 2.0833335 0 1 1  6.3777781 4.9843869 z"
   transform="matrix(2.9565038e-2,0,0,3.2713366e-2,0.7252903,0.7846945)" /><path
   id="path14089"
   d="M 0.81739183,1.0002177 C 0.81265513,0.99913594 0.80952313,0.99821024 0.80913093,0.99777624 C 0.80879213,0.99740134 0.76811083,0.92650534 0.76777953,0.92571244 C 0.76759403,0.92526864 0.77040543,0.92164814 0.77263653,0.91945754 L 0.77420813,0.91791454 L 0.78968113,0.91766094 C 0.79819133,0.91752144 0.80527933,0.91752224 0.80543213,0.91766264 C 0.80558513,0.91780314 0.80566373,0.91874564 0.80560693,0.91975714 L 0.80550363,0.92159624 L 0.79955953,0.92177094 C 0.79629023,0.92186704 0.79357723,0.92197224 0.79353053,0.92200494 C 0.79348373,0.92203744 0.79344553,0.92227574 0.79344553,0.92253434 C 0.79344553,0.92332964 0.82512133,0.98262494 0.82540483,0.98236034 C 0.82576793,0.98202144 0.84446763,0.94600914 0.84449033,0.94560534 C 0.84452553,0.94497344 0.83139943,0.92241064 0.83085453,0.92216654 C 0.83054903,0.92202964 0.82777703,0.92184534 0.82469453,0.92175684 L 0.81909013,0.92159624 L 0.81909013,0.91959734 L 0.81909013,0.91759834 L 0.84473463,0.91760144 L 0.87037913,0.91760444 L 0.87047963,0.91967844 L 0.87057993,0.92175224 L 0.86536463,0.92175224 C 0.86139853,0.92175224 0.85999153,0.92185814 0.85949043,0.92219464 C 0.85884413,0.92262864 0.85884833,0.92266824 0.85971333,0.92430014 C 0.88009813,0.96275434 0.89041163,0.98192794 0.89060663,0.98173314 C 0.89092633,0.98141374 0.90159753,0.96062254 0.90290023,0.95778094 C 0.90526293,0.95262714 0.90616613,0.94834714 0.90582893,0.94389974 C 0.90543073,0.93864294 0.90381123,0.93575894 0.89707333,0.92830634 C 0.89278133,0.92355914 0.89131913,0.92116424 0.89094803,0.91827414 C 0.89037923,0.91384304 0.89257193,0.91016434 0.89672593,0.90721974 C 0.89873653,0.90579454 0.90221913,0.90481674 0.90561553,0.90680904 C 0.90940143,0.90902984 0.91463603,0.91467304 0.91822533,0.91753574 C 0.92195453,0.92050994 0.92382083,0.92159714 0.92407973,0.92254474 C 0.92430783,0.92337954 0.92372443,0.92809834 0.92298203,0.93142224 C 0.92222823,0.93479784 0.92013583,0.94036504 0.91799933,0.94467964 C 0.91528753,0.95015614 0.88962803,0.99638924 0.88913783,0.99668224 C 0.88866693,0.99696364 0.88103693,0.99919374 0.87870093,0.99973284 C 0.87786033,0.99992674 0.87692223,1.0001517 0.87661643,1.0002328 C 0.87617823,1.0003488 0.87316373,0.99532324 0.86237903,0.97649644 C 0.85485423,0.96336064 0.84858793,0.95272304 0.84845393,0.95285744 C 0.84831993,0.95299194 0.84229543,0.96387534 0.83506643,0.97704314 C 0.82357153,0.99798064 0.82183013,1.0009799 0.82118573,1.00095 C 0.82078043,1.0009312 0.81907313,1.0006017 0.81739183,1.0002177 z "
   style="fill:#ffffff;fill-opacity:1"
   sodipodi:nodetypes="csscccscccssssscccccccccssssssssssssssssssssc" />
<rect
   style="fill:#ffffff;fill-opacity:1;fill-rule:evenodd;stroke:#ffffff;stroke-width:0.01571367;stroke-linecap:square;stroke-linejoin:miter;stroke-miterlimit:7.9000001;stroke-dasharray:none;stroke-dashoffset:0;stroke-opacity:1"
   id="rect21853"
   width="0.0094264057"
   height="4.9287878e-006"
   x="1.0714992"
   y="0.74121952"
   rx="131849.22"
   ry="0.014736132"
   transform="matrix(0.9829557,0.1838427,-0.1838427,0.9829557,0,0)"
   inkscape:transform-center-y="0.44895267"
   inkscape:transform-center-x="-0.075694241" /><path
   sodipodi:type="arc"
   style="fill:#ffffff;fill-opacity:1;stroke:#393939;stroke-width:0.3682912;stroke-linecap:square;stroke-linejoin:miter;stroke-miterlimit:7.9000001;stroke-dasharray:none;stroke-dashoffset:0;stroke-opacity:1"
   id="path22827"
   sodipodi:cx="4.0500002"
   sodipodi:cy="4.9843869"
   sodipodi:rx="2.3277779"
   sodipodi:ry="2.0833335"
   d="M 6.3777781 4.9843869 A 2.3277779 2.0833335 0 1 1  1.7222223,4.9843869 A 2.3277779 2.0833335 0 1 1  6.3777781 4.9843869 z"
   transform="matrix(4.1988838e-2,0,0,4.6460154e-2,0.9756698,0.7048084)" /><path
   transform="matrix(2.9565038e-2,0,0,3.2713366e-2,1.0252903,0.7735834)"
   d="M 6.3777781 4.9843869 A 2.3277779 2.0833335 0 1 1  1.7222223,4.9843869 A 2.3277779 2.0833335 0 1 1  6.3777781 4.9843869 z"
   sodipodi:ry="2.0833335"
   sodipodi:rx="2.3277779"
   sodipodi:cy="4.9843869"
   sodipodi:cx="4.0500002"
   id="path22829"
   style="fill:#2d61ff;fill-opacity:1;stroke:#2d61ff;stroke-width:0.54040182;stroke-linecap:square;stroke-linejoin:miter;stroke-miterlimit:7.9000001;stroke-dasharray:none;stroke-dashoffset:0;stroke-opacity:1"
   sodipodi:type="arc" /><path
   sodipodi:nodetypes="csscccscccssssscccccccccssssssssssssssssssssc"
   style="fill:#ffffff;fill-opacity:1"
   d="M 1.1173918,0.98910664 C 1.1126551,0.98802484 1.1095231,0.98709914 1.1091309,0.98666514 C 1.1087921,0.98629024 1.0681108,0.91539424 1.0677795,0.91460134 C 1.067594,0.91415754 1.0704054,0.91053704 1.0726365,0.90834644 L 1.0742081,0.90680344 L 1.0896811,0.90654984 C 1.0981913,0.90641034 1.1052793,0.90641114 1.1054321,0.90655154 C 1.1055851,0.90669204 1.1056637,0.90763454 1.1056069,0.90864604 L 1.1055036,0.91048514 L 1.0995595,0.91065984 C 1.0962902,0.91075594 1.0935772,0.91086114 1.0935305,0.91089384 C 1.0934837,0.91092634 1.0934455,0.91116464 1.0934455,0.91142324 C 1.0934455,0.91221854 1.1251213,0.97151384 1.1254048,0.97124924 C 1.1257679,0.97091034 1.1444676,0.93489804 1.1444903,0.93449424 C 1.1445255,0.93386234 1.1313994,0.91129954 1.1308545,0.91105544 C 1.130549,0.91091854 1.127777,0.91073424 1.1246945,0.91064574 L 1.1190901,0.91048514 L 1.1190901,0.90848624 L 1.1190901,0.90648724 L 1.1447346,0.90649034 L 1.1703791,0.90649334 L 1.1704796,0.90856734 L 1.1705799,0.91064114 L 1.1653646,0.91064114 C 1.1613985,0.91064114 1.1599915,0.91074704 1.1594904,0.91108354 C 1.1588441,0.91151754 1.1588483,0.91155714 1.1597133,0.91318904 C 1.1800981,0.95164324 1.1904116,0.97081684 1.1906066,0.97062204 C 1.1909263,0.97030264 1.2015975,0.94951144 1.2029002,0.94666984 C 1.2052629,0.94151604 1.2061661,0.93723604 1.2058289,0.93278864 C 1.2054307,0.92753184 1.2038112,0.92464784 1.1970733,0.91719524 C 1.1927813,0.91244804 1.1913191,0.91005314 1.190948,0.90716304 C 1.1903792,0.90273194 1.1925719,0.89905324 1.1967259,0.89610864 C 1.1987365,0.89468344 1.2022191,0.89370564 1.2056155,0.89569794 C 1.2094014,0.89791874 1.214636,0.90356194 1.2182253,0.90642464 C 1.2219545,0.90939884 1.2238208,0.91048604 1.2240797,0.91143364 C 1.2243078,0.91226844 1.2237244,0.91698724 1.222982,0.92031114 C 1.2222282,0.92368674 1.2201358,0.92925394 1.2179993,0.93356854 C 1.2152875,0.93904504 1.189628,0.98527814 1.1891378,0.98557114 C 1.1886669,0.98585254 1.1810369,0.98808264 1.1787009,0.98862174 C 1.1778603,0.98881564 1.1769222,0.98904064 1.1766164,0.98912174 C 1.1761782,0.98923774 1.1731637,0.98421214 1.162379,0.96538534 C 1.1548542,0.95224954 1.1485879,0.94161194 1.1484539,0.94174634 C 1.1483199,0.94188084 1.1422954,0.95276424 1.1350664,0.96593204 C 1.1235715,0.98686954 1.1218301,0.98986884 1.1211857,0.98983894 C 1.1207804,0.98982014 1.1190731,0.98949064 1.1173918,0.98910664 z "
   id="path22831" /><rect
   inkscape:transform-center-x="-0.075694241"
   inkscape:transform-center-y="0.44895267"
   transform="matrix(0.9829557,0.1838427,-0.1838427,0.9829557,0,0)"
   ry="0.014736132"
   rx="131849.22"
   y="0.67514509"
   x="1.3643435"
   height="4.9287878e-006"
   width="0.0094264057"
   id="rect22833"
   style="fill:#ffffff;fill-opacity:1;fill-rule:evenodd;stroke:#ffffff;stroke-width:0.01571367;stroke-linecap:square;stroke-linejoin:miter;stroke-miterlimit:7.9000001;stroke-dasharray:none;stroke-dashoffset:0;stroke-opacity:1" /></svg>